  0
SECTION
  2
HEADER
  9
$ACADVER
  1
AC1009
  9
$INSBASE
 10
0.0
 20
0.0
 30
0.0
  9
$EXTMIN
 10
0.0
 20
0.0
 30
0.0
  9
$EXTMAX
 10
0.0
 20
0.0
 30
0.0
  0
ENDSEC
  0
SECTION
  2
TABLES
  0
TABLE
  2
VPORT
 70
0
  0
ENDTAB
  0
TABLE
  2
LTYPE
 70
1
  0
LTYPE
  2
CONTINUOUS
 70
0
  3
Solid line
 72
65
 73
0
 40
0.0
  0
ENDTAB
  0
TABLE
  2
LAYER
 70
1
  0
LAYER
  2
0
 70
64
 62
7
  6
continuous
  0
ENDTAB
  0
TABLE
  2
STYLE
 70
1
  0
STYLE
  2
STANDARD
 70
0
 40
0
 41
1.0
 50
0.0
 71
0
 42
1
 3
ARIAL.TTF
 4

  0
ENDTAB
  0
TABLE
  2
VIEW
 70
0
  0
ENDTAB
  0
ENDSEC
  0
SECTION
  2
BLOCKS
  0
BLOCK
  8
0
  2
SHAPE2DVIEW
 70
0
 10
0.0
 20
0.0
 30
0.0
  3
SHAPE2DVIEW
  0
LINE
  8
0
 62
0
 10
-94.0
 20
56.25
 30
0.0
 11
94.0
 21
56.25
 31
0.0
  0
ARC
  8
0
 62
0
 10
-94.0
 20
51.25
 30
0.0
 40
5.0
 50
90.0
 51
-180.0
  0
ARC
  8
0
 62
0
 10
94.0
 20
51.25
 30
0.0
 40
5.0
 50
-0.0
 51
90.0
  0
LINE
  8
0
 62
0
 10
99.0
 20
51.25
 30
0.0
 11
99.0
 21
-56.25
 31
0.0
  0
LINE
  8
0
 62
0
 10
99.0
 20
-56.25
 30
0.0
 11
34.0
 21
-56.25
 31
0.0
  0
LINE
  8
0
 62
0
 10
34.0
 20
-41.75
 30
0.0
 11
34.0
 21
-56.25
 31
0.0
  0
ARC
  8
0
 62
0
 10
32.5
 20
-41.75
 30
0.0
 40
1.5
 50
-0.0
 51
90.0
  0
LINE
  8
0
 62
0
 10
-32.5
 20
-40.25
 30
0.0
 11
32.5
 21
-40.25
 31
0.0
  0
ARC
  8
0
 62
0
 10
-32.5
 20
-41.75
 30
0.0
 40
1.5
 50
90.0
 51
-180.0
  0
LINE
  8
0
 62
0
 10
-34.0
 20
-56.25
 30
0.0
 11
-34.0
 21
-41.75
 31
0.0
  0
LINE
  8
0
 62
0
 10
-34.0
 20
-56.25
 30
0.0
 11
-99.0
 21
-56.25
 31
0.0
  0
LINE
  8
0
 62
0
 10
-99.0
 20
-56.25
 30
0.0
 11
-99.0
 21
51.25
 31
0.0
  0
CIRCLE
  8
0
 62
0
 10
93.0
 20
-43.92
 30
0.0
 40
1.5
  0
CIRCLE
  8
0
 62
0
 10
69.94
 20
-35.0
 30
0.0
 40
1.25
  0
CIRCLE
  8
0
 62
0
 10
42.0
 20
-35.0
 30
0.0
 40
1.25
  0
CIRCLE
  8
0
 62
0
 10
23.43
 20
-26.75
 30
0.0
 40
1.25
  0
CIRCLE
  8
0
 62
0
 10
-43.0
 20
-44.3
 30
0.0
 40
1.25
  0
CIRCLE
  8
0
 62
0
 10
-28.0
 20
-26.75
 30
0.0
 40
1.25
  0
CIRCLE
  8
0
 62
0
 10
-83.0
 20
-44.3
 30
0.0
 40
1.25
  0
CIRCLE
  8
0
 62
0
 10
-93.0
 20
-43.92
 30
0.0
 40
1.5
  0
LINE
  8
0
 62
0
 10
-89.0
 20
-38.2
 30
0.0
 11
-89.0
 21
-8.2
 31
0.0
  0
ARC
  8
0
 62
0
 10
-87.5
 20
-38.2
 30
0.0
 40
1.5
 50
-180.0
 51
-90.0
  0
LINE
  8
0
 62
0
 10
-38.5
 20
-39.7
 30
0.0
 11
-87.5
 21
-39.7
 31
0.0
  0
ARC
  8
0
 62
0
 10
-38.5
 20
-38.2
 30
0.0
 40
1.5
 50
-90.0
 51
-0.0
  0
LINE
  8
0
 62
0
 10
-37.0
 20
-8.2
 30
0.0
 11
-37.0
 21
-38.2
 31
0.0
  0
ARC
  8
0
 62
0
 10
-38.5
 20
-8.2
 30
0.0
 40
1.5
 50
-0.0
 51
90.0
  0
LINE
  8
0
 62
0
 10
-87.5
 20
-6.7
 30
0.0
 11
-38.5
 21
-6.7
 31
0.0
  0
ARC
  8
0
 62
0
 10
-87.5
 20
-8.2
 30
0.0
 40
1.5
 50
90.0
 51
-180.0
  0
CIRCLE
  8
0
 62
0
 10
-43.0
 20
-4.3
 30
0.0
 40
1.25
  0
CIRCLE
  8
0
 62
0
 10
-83.0
 20
-4.3
 30
0.0
 40
1.25
  0
CIRCLE
  8
0
 62
0
 10
85.18
 20
15.8
 30
0.0
 40
1.25
  0
CIRCLE
  8
0
 62
0
 10
23.43
 20
5.0
 30
0.0
 40
1.25
  0
CIRCLE
  8
0
 62
0
 10
42.0
 20
15.8
 30
0.0
 40
1.25
  0
CIRCLE
  8
0
 62
0
 10
93.0
 20
46.25
 30
0.0
 40
1.5
  0
LINE
  8
0
 62
0
 10
58.0
 20
44.25
 30
0.0
 11
74.0
 21
44.25
 31
0.0
  0
ARC
  8
0
 62
0
 10
58.0
 20
40.25
 30
0.0
 40
4.0
 50
90.0
 51
-90.0
  0
LINE
  8
0
 62
0
 10
58.0
 20
36.25
 30
0.0
 11
74.0
 21
36.25
 31
0.0
  0
ARC
  8
0
 62
0
 10
74.0
 20
40.25
 30
0.0
 40
4.0
 50
-90.0
 51
90.0
  0
CIRCLE
  8
0
 62
0
 10
23.15
 20
46.25
 30
0.0
 40
1.5
  0
CIRCLE
  8
0
 62
0
 10
-28.0
 20
5.0
 30
0.0
 40
1.25
  0
CIRCLE
  8
0
 62
0
 10
-43.0
 20
4.3
 30
0.0
 40
1.25
  0
LINE
  8
0
 62
0
 10
-7.499999999308
 20
23.0
 30
0.0
 11
7.499999999308
 21
23.0
 31
0.0
  0
ARC
  8
0
 62
0
 10
-7.5
 20
15.0
 30
0.0
 40
8.0
 50
89.99999999504392
 51
-89.99999999505107
  0
LINE
  8
0
 62
0
 10
-7.499999999309
 20
7.0
 30
0.0
 11
7.499999999309
 21
7.0
 31
0.0
  0
ARC
  8
0
 62
0
 10
7.5
 20
15.0
 30
0.0
 40
8.0
 50
-90.00000000494896
 51
90.00000000495605
  0
CIRCLE
  8
0
 62
0
 10
-83.0
 20
4.3
 30
0.0
 40
1.25
  0
LINE
  8
0
 62
0
 10
-89.0
 20
8.2
 30
0.0
 11
-89.0
 21
38.2
 31
0.0
  0
ARC
  8
0
 62
0
 10
-87.5
 20
8.2
 30
0.0
 40
1.5
 50
-180.0
 51
-90.0
  0
LINE
  8
0
 62
0
 10
-38.5
 20
6.7
 30
0.0
 11
-87.5
 21
6.7
 31
0.0
  0
ARC
  8
0
 62
0
 10
-38.5
 20
8.2
 30
0.0
 40
1.5
 50
-90.0
 51
-0.0
  0
LINE
  8
0
 62
0
 10
-37.0
 20
38.2
 30
0.0
 11
-37.0
 21
8.2
 31
0.0
  0
ARC
  8
0
 62
0
 10
-38.5
 20
38.2
 30
0.0
 40
1.5
 50
-0.0
 51
90.0
  0
LINE
  8
0
 62
0
 10
-87.5
 20
39.7
 30
0.0
 11
-38.5
 21
39.7
 31
0.0
  0
ARC
  8
0
 62
0
 10
-87.5
 20
38.2
 30
0.0
 40
1.5
 50
90.0
 51
-180.0
  0
CIRCLE
  8
0
 62
0
 10
0.0
 20
41.25
 30
0.0
 40
10.0
  0
CIRCLE
  8
0
 62
0
 10
-23.15
 20
46.25
 30
0.0
 40
1.5
  0
CIRCLE
  8
0
 62
0
 10
-43.0
 20
44.3
 30
0.0
 40
1.25
  0
CIRCLE
  8
0
 62
0
 10
-83.0
 20
44.3
 30
0.0
 40
1.25
  0
CIRCLE
  8
0
 62
0
 10
-93.0
 20
46.25
 30
0.0
 40
1.5
  0
ENDBLK
  0
ENDSEC
  0
SECTION
  2
ENTITIES
  0
INSERT
  2
SHAPE2DVIEW
  8
0
 62
0
 10
0.0
 20
0.0
 30
0.0
  0
ENDSEC
  0
EOF
