  0
SECTION
  2
HEADER
  9
$ACADVER
  1
AC1009
  9
$INSBASE
 10
0.0
 20
0.0
 30
0.0
  9
$EXTMIN
 10
0.0
 20
0.0
 30
0.0
  9
$EXTMAX
 10
0.0
 20
0.0
 30
0.0
  0
ENDSEC
  0
SECTION
  2
TABLES
  0
TABLE
  2
VPORT
 70
0
  0
ENDTAB
  0
TABLE
  2
LTYPE
 70
1
  0
LTYPE
  2
CONTINUOUS
 70
0
  3
Solid line
 72
65
 73
0
 40
0.0
  0
ENDTAB
  0
TABLE
  2
LAYER
 70
1
  0
LAYER
  2
0
 70
64
 62
7
  6
continuous
  0
ENDTAB
  0
TABLE
  2
STYLE
 70
1
  0
STYLE
  2
STANDARD
 70
0
 40
0
 41
1.0
 50
0.0
 71
0
 42
1
 3
ARIAL.TTF
 4

  0
ENDTAB
  0
TABLE
  2
VIEW
 70
0
  0
ENDTAB
  0
ENDSEC
  0
SECTION
  2
BLOCKS
  0
BLOCK
  8
0
  2
SHAPE2DVIEW
 70
0
 10
0.0
 20
0.0
 30
0.0
  3
SHAPE2DVIEW
  0
LINE
  8
0
 62
0
 10
-19.0
 20
5.5
 30
0.0
 11
-19.0
 21
56.25
 31
0.0
  0
ARC
  8
0
 62
0
 10
-17.5
 20
5.5
 30
0.0
 40
1.5
 50
-180.0
 51
-90.0
  0
LINE
  8
0
 62
0
 10
-94.0
 20
56.25
 30
0.0
 11
-19.0
 21
56.25
 31
0.0
  0
LINE
  8
0
 62
0
 10
17.5
 20
4.0
 30
0.0
 11
-17.5
 21
4.0
 31
0.0
  0
ARC
  8
0
 62
0
 10
-94.0
 20
51.25
 30
0.0
 40
5.0
 50
90.0
 51
-180.0
  0
ARC
  8
0
 62
0
 10
17.5
 20
5.5
 30
0.0
 40
1.5
 50
-90.0
 51
-0.0
  0
LINE
  8
0
 62
0
 10
-99.0
 20
-56.25
 30
0.0
 11
-99.0
 21
51.25
 31
0.0
  0
LINE
  8
0
 62
0
 10
19.0
 20
56.25
 30
0.0
 11
19.0
 21
5.5
 31
0.0
  0
LINE
  8
0
 62
0
 10
-12.25
 20
-56.25
 30
0.0
 11
-99.0
 21
-56.25
 31
0.0
  0
LINE
  8
0
 62
0
 10
19.0
 20
56.25
 30
0.0
 11
94.0
 21
56.25
 31
0.0
  0
LINE
  8
0
 62
0
 10
-12.25
 20
-56.25
 30
0.0
 11
-12.25
 21
-50.75
 31
0.0
  0
ARC
  8
0
 62
0
 10
94.0
 20
51.25
 30
0.0
 40
5.0
 50
-0.0
 51
90.0
  0
ARC
  8
0
 62
0
 10
-10.75
 20
-50.75
 30
0.0
 40
1.5
 50
90.0
 51
-180.0
  0
LINE
  8
0
 62
0
 10
99.0
 20
51.25
 30
0.0
 11
99.0
 21
-56.25
 31
0.0
  0
LINE
  8
0
 62
0
 10
-10.75
 20
-49.25
 30
0.0
 11
10.75
 21
-49.25
 31
0.0
  0
LINE
  8
0
 62
0
 10
99.0
 20
-56.25
 30
0.0
 11
12.25
 21
-56.25
 31
0.0
  0
ARC
  8
0
 62
0
 10
10.75
 20
-50.75
 30
0.0
 40
1.5
 50
-0.0
 51
90.0
  0
LINE
  8
0
 62
0
 10
12.25
 20
-50.75
 30
0.0
 11
12.25
 21
-56.25
 31
0.0
  0
CIRCLE
  8
0
 62
0
 10
-34.4
 20
-20.75
 30
0.0
 40
1.65
  0
CIRCLE
  8
0
 62
0
 10
17.500000000000004
 20
-52.75
 30
0.0
 40
1.7
  0
CIRCLE
  8
0
 62
0
 10
-17.5
 20
-52.75
 30
0.0
 40
1.7
  0
CIRCLE
  8
0
 62
0
 10
-93.0
 20
-43.92000000000001
 30
0.0
 40
1.7
  0
CIRCLE
  8
0
 62
0
 10
-23.15
 20
46.25
 30
0.0
 40
1.7
  0
CIRCLE
  8
0
 62
0
 10
-93.0
 20
46.25
 30
0.0
 40
1.7
  0
CIRCLE
  8
0
 62
0
 10
23.15
 20
46.25
 30
0.0
 40
1.7
  0
CIRCLE
  8
0
 62
0
 10
37.5
 20
-33.79999999999999
 30
0.0
 40
1.25
  0
CIRCLE
  8
0
 62
0
 10
37.5
 20
38.99999999999999
 30
0.0
 40
1.25
  0
CIRCLE
  8
0
 62
0
 10
34.4
 20
-20.75
 30
0.0
 40
1.65
  0
CIRCLE
  8
0
 62
0
 10
93.0
 20
-43.92000000000001
 30
0.0
 40
1.7
  0
CIRCLE
  8
0
 62
0
 10
90.5
 20
-33.79999999999999
 30
0.0
 40
1.25
  0
CIRCLE
  8
0
 62
0
 10
93.0
 20
46.25
 30
0.0
 40
1.7
  0
CIRCLE
  8
0
 62
0
 10
90.5
 20
38.99999999999999
 30
0.0
 40
1.25
  0
LINE
  8
0
 62
0
 10
46.55
 20
-12.999999999999813
 30
0.0
 11
46.55000000000001
 21
-29.0
 31
0.0
  0
ARC
  8
0
 62
0
 10
45.0
 20
-29.0
 30
0.0
 40
1.55
 50
180.0
 51
-0.0
  0
LINE
  8
0
 62
0
 10
43.45
 20
-13.0
 30
0.0
 11
43.45
 21
-29.0
 31
0.0
  0
ARC
  8
0
 62
0
 10
45.0
 20
-13.0
 30
0.0
 40
1.55
 50
0.0
 51
-180.0
  0
ENDBLK
  0
ENDSEC
  0
SECTION
  2
ENTITIES
  0
INSERT
  2
SHAPE2DVIEW
  8
0
 62
0
 10
0.0
 20
0.0
 30
0.0
  0
ENDSEC
  0
EOF
